<svg height="512pt" viewBox="0 -53 512 512" width="512pt" xmlns="http://www.w3.org/2000/svg"><g fill="#90a4ae"><path d="m5 4.996094h200.800781v98.753906h-200.800781zm0 0"/><path d="m306.199219 301.253906h200.800781v98.75h-200.800781zm0 0"/><path d="m205.800781 301.253906h-200.800781v-98.753906h200.800781zm0 0"/><path d="m306.199219 103.746094h200.800781v98.753906h-200.800781zm0 0"/><path d="m5 103.746094h100.398438v98.753906h-100.398438zm0 0"/><path d="m5 301.253906h100.398438v98.75h-100.398438zm0 0"/></g><path d="m306.199219 400.003906h-200.800781v-98.753906h200.800781zm0 0" fill="#e6e6e6"/><path d="m205.800781 202.5h200.800781v98.753906h-200.800781zm0 0" fill="#e6e6e6"/><path d="m306.199219 202.5h-200.800781v-98.753906h200.800781zm0 0" fill="#e6e6e6"/><path d="m205.800781 4.996094h200.800781v98.75h-200.800781zm0 0" fill="#e6e6e6"/><path d="m306.199219 301.253906v98.75h1.679687l98.820313-98.75zm0 0" fill="#78909c"/><path d="m307.878906 400.003906h199.121094v-98.75h-100.300781zm0 0" fill="#546e7a"/><path d="m507 201.019531-1.480469 1.480469h1.480469zm0 0" fill="#90a4ae"/><path d="m507 103.746094h-105.140625l-95.660156 95.597656v3.15625h199.320312l1.480469-1.480469zm0 0" fill="#78909c"/><path d="m306.199219 301.253906h-101.980469l-98.820312 98.75h200.800781zm0 0" fill="#bdbdbd"/><path d="m406.601562 202.5h-103.5625l-97.238281 97.171875v1.582031h200.800781zm0 0" fill="#bdbdbd"/><path d="m507 207.5c2.761719 0 5-2.238281 5-5v-98.753906c0-2.757813-2.238281-5-5-5h-95.398438v-93.746094c0-2.761719-2.238281-5-5-5h-401.601562c-2.761719 0-5 2.238281-5 5v395c0 2.761719 2.238281 5 5 5h502c2.761719 0 5-2.238281 5-5v-98.746094c0-2.761718-2.238281-5-5-5h-95.398438v-88.753906zm-296.199219-197.507812h190.800781v88.761718h-190.800781zm90.398438 98.753906v88.753906h-190.800781v-88.753906zm-291.199219-98.753906h190.800781v88.761718h-190.800781zm0 98.753906h90.398438v88.753906h-90.398438zm90.398438 286.261718h-90.398438v-88.761718h90.398438zm-90.398438-98.753906v-88.753906h190.800781v88.757812zm291.199219 98.753906h-190.800781v-88.761718h190.800781zm-90.398438-98.753906v-88.753906h190.800781v88.757812zm291.199219 9.992188v88.761718h-190.800781v-88.761718zm-95.398438-108.746094h-95.402343v-88.753906h190.800781v88.753906zm0 0" fill="#424242"/></svg>