<?xml version="1.0" encoding="iso-8859-1"?>
<!-- Generator: Adobe Illustrator 18.0.0, SVG Export Plug-In . SVG Version: 6.00 Build 0)  -->
<!DOCTYPE svg PUBLIC "-//W3C//DTD SVG 1.1//EN" "http://www.w3.org/Graphics/SVG/1.1/DTD/svg11.dtd">
<svg xmlns="http://www.w3.org/2000/svg" xmlns:xlink="http://www.w3.org/1999/xlink" version="1.1" id="Capa_1" x="0px" y="0px" viewBox="0 0 396.248 396.248" style="enable-background:new 0 0 396.248 396.248;" xml:space="preserve" width="512px" height="512px">
<g>
	<path d="M28.124,314.935h123.204c2.762,0,5-2.239,5-5v-59.533c0-2.761-2.238-5-5-5H28.124c-2.762,0-5,2.239-5,5v59.533   C23.124,312.696,25.362,314.935,28.124,314.935z" fill="#eb715b"/>
	<path d="M170.901,245.401c-2.762,0-5,2.239-5,5v59.533c0,2.761,2.238,5,5,5h128.466c2.761,0,5-2.239,5-5v-59.533   c0-2.761-2.239-5-5-5H170.901z" fill="#eb715b"/>
	<path d="M368.124,245.401h-49.185c-2.763,0-5,2.239-5,5v59.533c0,2.761,2.237,5,5,5h49.185c2.762,0,5-2.239,5-5v-59.533   C373.124,247.64,370.886,245.401,368.124,245.401z" fill="#eb715b"/>
	<path d="M77.309,326.714H28.124c-2.762,0-5,2.239-5,5v59.534c0,2.761,2.238,5,5,5h49.185c2.762,0,5-2.239,5-5v-59.534   C82.309,328.953,80.07,326.714,77.309,326.714z" fill="#eb715b"/>
	<path d="M225.347,326.714H96.88c-2.762,0-5,2.239-5,5v59.534c0,2.761,2.238,5,5,5h128.467c2.762,0,5-2.239,5-5v-59.534   C230.347,328.953,228.108,326.714,225.347,326.714z" fill="#eb715b"/>
	<path d="M368.124,326.714H244.92c-2.762,0-5,2.239-5,5v59.534c0,2.761,2.238,5,5,5h123.204c2.762,0,5-2.239,5-5v-59.534   C373.124,328.953,370.886,326.714,368.124,326.714z" fill="#eb715b"/>
	<path d="M94.616,231.09h82.904c2.107,0,3.991-1.323,4.705-3.307c0.714-1.984,0.105-4.203-1.52-5.547   c-13.934-11.518-19.862-30.084-15.859-49.665c2.926-14.311,10.64-26.32,20.642-32.887c-1.622,10.453,0.173,20.066,5.284,27.339   c5.159,7.341,13.291,11.552,22.31,11.552c5.745,0,11.644-1.681,17.321-4.904c1.245,3.546,2.654,8.877,2.971,15.128   c0.668,13.179-3.669,24.537-12.888,33.756c-1.431,1.43-1.858,3.581-1.084,5.449c0.773,1.868,2.597,3.086,4.619,3.086h86.196   c1.326,0,2.598-0.527,3.535-1.464c20.599-20.599,30.815-42.775,30.364-65.91c-0.706-36.265-27.366-61.335-28.5-62.384   c-1.794-1.66-4.524-1.778-6.456-0.284c-11.041,8.545-20.285,12.7-28.261,12.703c-0.003,0-0.004,0-0.007,0   c-16.7,0-27.715-19.641-40.467-42.38C222.597,39.573,200.407,0,151.505,0c-2.943,0-5.989,0.146-9.056,0.434   c-1.844,0.173-3.44,1.352-4.15,3.062c-0.71,1.711-0.416,3.674,0.763,5.101C164.278,39.108,167.246,70.823,159,88.719   c-5.373,11.662-15.31,17.944-28.736,18.167c-9.259,0.163-15.454-2.189-18.447-6.959c-6.106-9.724,0.615-28.563,3.718-34.997   c0.959-1.977,0.514-4.348-1.096-5.844c-1.608-1.496-4.008-1.765-5.908-0.665c-32.816,18.993-51.516,42.973-55.579,71.272   c-7.388,51.449,36.186,97.891,38.044,99.843C91.938,230.529,93.248,231.09,94.616,231.09z" fill="#eb715b"/>
</g>
<g>
</g>
<g>
</g>
<g>
</g>
<g>
</g>
<g>
</g>
<g>
</g>
<g>
</g>
<g>
</g>
<g>
</g>
<g>
</g>
<g>
</g>
<g>
</g>
<g>
</g>
<g>
</g>
<g>
</g>
</svg>
